<svg xmlns="http://www.w3.org/2000/svg" viewBox="0 0 512 512" width="512" height="512">
	<style>
		tspan { white-space:pre }
		.shp0 { fill:  #cc9933 }
	</style>

		<g >
			<path fill-rule="evenodd" class="shp0" d="M 256 8 c 137 0 248 111 248 248 S 393 504 256 504 S 8 393 8 256 S 119 8 256 8 Z M 140 300 h 116 v 70.9 c 0 10.7 13 16.1 20.5 8.5 l 114.3 -114.9 c 4.7 -4.7 4.7 -12.2 0 -16.9 l -114.3 -115 c -7.6 -7.6 -20.5 -2.2 -20.5 8.5 V 212 H 140 c -6.6 0 -12 5.4 -12 12 v 64 c 0 6.6 5.4 12 12 12 Z" />
		</g>


</svg>
