<svg xmlns="http://www.w3.org/2000/svg" viewBox="0 0 512 512" width="512" height="512">
	<style>
		tspan { white-space:pre }
		.shp0 { fill: #2d527c }
		.shp1 { fill: #cee8fa }
		.shp2 { fill: #f0bf5f }
	</style>
	<g >
		<path class="shp0" d="M303.6 453.1L162.3 453.1C91 453.1 33 395.1 33 323.8L33 201.2C33 193.2 39.5 186.8 47.4 186.8C55.3 186.8 61.8 193.3 61.8 201.2L61.8 323.9C61.8 379.3 106.8 424.3 162.2 424.3L303.5 424.3C311.5 424.3 317.9 430.8 317.9 438.7C318 446.7 311.6 453.1 303.6 453.1Z" />
		<path class="shp0" d="M387.7 446.7C381.7 446.7 376.2 443 374.1 437C371.5 429.5 375.4 421.3 382.9 418.6C423.1 404.5 450.1 366.4 450.1 323.8L450.1 309.3C450.1 301.3 456.6 294.9 464.5 294.9C472.4 294.9 478.9 301.4 478.9 309.3L478.9 323.8C478.9 378.6 444.2 427.7 392.4 445.8C390.9 446.4 389.3 446.7 387.7 446.7Z" />
	</g>
	<path class="shp1" d="M468.7 248.8L43.3 248.8C27.4 248.8 14.5 235.9 14.5 220L14.5 220C14.5 204.1 27.4 191.2 43.3 191.2L468.8 191.2C484.7 191.2 497.6 204.1 497.6 220L497.6 220C497.6 235.9 484.7 248.8 468.7 248.8Z" />
	<path fill-rule="evenodd" class="shp0" d="M468.7 263.2L43.3 263.2C19.4 263.2 0 243.8 0 219.9C0 196 19.4 176.6 43.3 176.6L468.8 176.6C492.7 176.6 512.1 196 512.1 219.9C512.1 243.8 492.6 263.2 468.7 263.2ZM43.3 205.5C35.3 205.5 28.9 212 28.9 219.9C28.9 227.8 35.4 234.3 43.3 234.3L468.8 234.3C476.8 234.3 483.2 227.8 483.2 219.9C483.2 212 476.7 205.5 468.8 205.5L43.3 205.5Z" />
	<path class="shp1" d="M113.9 480.2C99.96 480.2 88.7 468.94 88.7 455C88.7 441.06 99.96 429.8 113.9 429.8C127.84 429.8 139.1 441.06 139.1 455C139.1 468.94 127.84 480.2 113.9 480.2Z" />
	<path fill-rule="evenodd" class="shp0" d="M113.9 494.7C92 494.7 74.2 476.9 74.2 455C74.2 433.1 92 415.3 113.9 415.3C135.8 415.3 153.6 433.1 153.6 455C153.6 476.9 135.8 494.7 113.9 494.7ZM113.9 444.2C107.9 444.2 103.1 449.1 103.1 455C103.1 460.9 108 465.8 113.9 465.8C119.8 465.8 124.7 460.9 124.7 455C124.7 449.1 119.9 444.2 113.9 444.2Z" />
	<path class="shp1" d="M398.1 480.2C384.16 480.2 372.9 468.94 372.9 455C372.9 441.06 384.16 429.8 398.1 429.8C412.04 429.8 423.3 441.06 423.3 455C423.3 468.94 412.04 480.2 398.1 480.2Z" />
	<g >
		<path fill-rule="evenodd" class="shp0" d="M398.1 494.7C376.2 494.7 358.4 476.9 358.4 455C358.4 433.1 376.2 415.3 398.1 415.3C420 415.3 437.8 433.1 437.8 455C437.8 476.9 419.9 494.7 398.1 494.7ZM398.1 444.2C392.1 444.2 387.3 449.1 387.3 455C387.3 460.9 392.2 465.8 398.1 465.8C404 465.8 408.9 460.9 408.9 455C408.9 449.1 404 444.2 398.1 444.2Z" />
		<path class="shp2" d="M323.4 88.7L188.6 88.7C180.6 88.7 174.2 82.2 174.2 74.3C174.2 66.4 180.7 59.9 188.6 59.9L323.5 59.9C331.5 59.9 337.9 66.4 337.9 74.3C337.9 82.2 331.4 88.7 323.4 88.7Z" />
		<path class="shp2" d="M328.1 116.8C320.1 116.8 313.7 110.3 313.7 102.4L313.7 31.7C313.7 23.7 320.2 17.3 328.1 17.3C336 17.3 342.5 23.8 342.5 31.7L342.5 102.4C342.5 110.4 336.1 116.8 328.1 116.8Z" />
		<path class="shp2" d="M354.1 46.2L302.2 46.2C294.2 46.2 287.8 39.7 287.8 31.8C287.8 23.9 294.3 17.4 302.2 17.4L354.1 17.4C362.1 17.4 368.5 23.9 368.5 31.8C368.5 39.7 362 46.2 354.1 46.2Z" />
		<path class="shp2" d="M183.9 116.8C175.9 116.8 169.5 110.3 169.5 102.4L169.5 31.7C169.5 23.7 176 17.3 183.9 17.3C191.8 17.3 198.3 23.8 198.3 31.7L198.3 102.4C198.3 110.4 191.9 116.8 183.9 116.8Z" />
		<path class="shp2" d="M209.8 46.2L157.9 46.2C149.9 46.2 143.5 39.7 143.5 31.8C143.5 23.9 150 17.4 157.9 17.4L209.8 17.4C217.8 17.4 224.2 23.9 224.2 31.8C224.2 39.7 217.8 46.2 209.8 46.2Z" />
		<path class="shp2" d="M256 150C248 150 241.6 143.5 241.6 135.6L241.6 75.7C241.6 67.7 248.1 61.3 256 61.3C263.9 61.3 270.4 67.8 270.4 75.7L270.4 135.6C270.4 143.5 264 150 256 150Z" />
	</g>
	<path class="shp1" d="M195.7 334.8L118 334.8C108.2 334.8 100.2 326.8 100.2 317L100.2 191L213.4 191L213.4 317C213.4 326.9 205.5 334.8 195.7 334.8Z" />
	<path fill-rule="evenodd" class="shp0" d="M195.7 349.3L118 349.3C100.3 349.3 85.8 334.9 85.8 317.1L85.8 191.1C85.8 183.1 92.3 176.7 100.2 176.7L213.4 176.7C221.4 176.7 227.8 183.2 227.8 191.1L227.8 317.1C227.9 334.8 213.4 349.3 195.7 349.3ZM114.7 317.1C114.7 318.9 116.2 320.4 118 320.4L195.7 320.4C197.5 320.4 199 318.9 199 317.1L199 205.5L114.7 205.5L114.7 317.1Z" />
</svg>
