<svg xmlns="http://www.w3.org/2000/svg" viewBox="0 0 512 512" width="512" height="512">
	<style>
		tspan { white-space:pre }
		.shp0 { fill: #cee8fa } 
		.shp1 { fill: #2d527c } 
		.shp2 { fill: #f0bf5f } 
	</style>
	<path class="shp0" d="M312 380.7L84.6 380.7L84.6 272C84.6 233.5 115.8 202.3 154.3 202.3L312 202.3L312 380.7L312 380.7Z" />
	<g >
		<path fill-rule="evenodd" class="shp1" d="M312 395.2L84.6 395.2C76.6 395.2 70.1 388.7 70.1 380.7L70.1 272C70.1 225.6 107.9 187.8 154.3 187.8L312 187.8C320 187.8 326.5 194.3 326.5 202.3L326.5 380.7C326.5 388.7 320 395.2 312 395.2ZM99.1 366.2L297.4 366.2L297.4 216.9L154.2 216.9C123.8 216.9 99.1 241.6 99.1 272L99.1 366.2Z" />
		<path class="shp2" d="M461.9 265.8L50.1 265.8C22.5 265.8 0 243.3 0 215.6L0 170.5C0 142.9 22.5 120.4 50.1 120.4L153.8 120.4C161.8 120.4 168.3 126.9 168.3 134.9C168.3 142.9 161.8 149.4 153.8 149.4L50.1 149.4C38.5 149.4 29 158.9 29 170.5L29 215.6C29 227.2 38.5 236.7 50.1 236.7L461.8 236.7C473.4 236.7 482.9 227.2 482.9 215.6L482.9 170.5C482.9 158.9 473.4 149.4 461.8 149.4L256 149.4C248 149.4 241.5 142.9 241.5 134.9C241.5 126.9 248 120.4 256 120.4L461.9 120.4C489.5 120.4 512 142.9 512 170.5L512 215.6C512 243.3 489.5 265.8 461.9 265.8Z" />
		<path class="shp2" d="M256 148.6C251.5 148.6 247.2 146.6 244.3 142.7C239.5 136.2 240.9 127.1 247.3 122.4C261 112.2 289.4 85.4 289.4 67.5C289.4 48.1 275.3 34.1 256 34.1C237.6 34.1 222.6 49.1 222.6 67.5C222.6 75.5 216.1 82 208.1 82C200.1 82 193.6 75.5 193.6 67.5L193.6 66.2C193.6 65.8 193.6 65.4 193.7 65C194.9 31.6 222.4 5 256 5C291.6 5 318.5 31.9 318.5 67.5C318.5 104.9 270.2 141.7 264.6 145.8C262 147.7 259 148.6 256 148.6Z" />
		<path class="shp1" d="M363.3 475.2L171 475.2C163 475.2 156.5 468.7 156.5 460.7L156.5 380.8C156.5 372.8 163 366.3 171 366.3L427.5 366.3C435.5 366.3 442 372.8 442 380.8C442 388.8 435.5 395.3 427.5 395.3L185.5 395.3L185.5 446.2L363.3 446.2C371.3 446.2 377.8 452.7 377.8 460.7C377.8 468.7 371.3 475.2 363.3 475.2Z" />
	</g>
	<path class="shp0" d="M427.4 380.7L427.4 260.4C427.4 228.3 401.4 202.3 369.3 202.3L171 202.3L171 380.7L427.4 380.7L427.4 380.7Z" />
	<g >
		<path fill-rule="evenodd" class="shp1" d="M427.4 395.2L171 395.2C163 395.2 156.5 388.7 156.5 380.7L156.5 202.4C156.5 194.4 163 187.9 171 187.9L369.4 187.9C409.4 187.9 442 220.5 442 260.5L442 380.8C442 388.7 435.4 395.2 427.4 395.2ZM185.5 366.2L412.9 366.2L412.9 260.4C412.9 236.4 393.4 216.9 369.4 216.9L185.5 216.9L185.5 366.2Z" />
		<path class="shp1" d="M171 507C163 507 156.5 500.5 156.5 492.5L156.5 460.7C156.5 452.7 163 446.2 171 446.2C179 446.2 185.5 452.7 185.5 460.7L185.5 492.5C185.5 500.5 179 507 171 507Z" />
		<path class="shp1" d="M427.4 507C419.4 507 412.9 500.5 412.9 492.5L412.9 371.4C412.9 363.4 419.4 356.9 427.4 356.9C435.4 356.9 441.9 363.4 441.9 371.4L441.9 492.5C442 500.5 435.4 507 427.4 507Z" />
		<path class="shp1" d="M363.3 507C355.3 507 348.8 500.5 348.8 492.5L348.8 460.7C348.8 452.7 355.3 446.2 363.3 446.2C371.3 446.2 377.8 452.7 377.8 460.7L377.8 492.5C377.8 500.5 371.3 507 363.3 507Z" />
		<path class="shp1" d="M299.2 507C291.2 507 284.7 500.5 284.7 492.5L284.7 460.7C284.7 452.7 291.2 446.2 299.2 446.2C307.2 446.2 313.7 452.7 313.7 460.7L313.7 492.5C313.7 500.5 307.2 507 299.2 507Z" />
		<path class="shp1" d="M235.1 507C227.1 507 220.6 500.5 220.6 492.5L220.6 460.7C220.6 452.7 227.1 446.2 235.1 446.2C243.1 446.2 249.6 452.7 249.6 460.7L249.6 492.5C249.6 500.5 243.1 507 235.1 507Z" />
	</g>
</svg>