<svg xmlns="http://www.w3.org/2000/svg" viewBox="0 0 512 512" width="512" height="512">
	<style>
		tspan { white-space:pre }
		.shp0 { fill: #2d527c } 
		.shp1 { fill: #cee8fa } 
		.shp2 { fill: #f0bf5f } 
	</style>
	<path class="shp0" d="M465.9 475.3L395.5 475.3C388 475.3 381.9 469.2 381.9 461.7C381.9 454.2 388 448.1 395.5 448.1L465.9 448.1C476.4 448.1 484.9 439.6 484.9 429.1L484.9 182.2C484.9 171.7 476.4 163.2 465.9 163.2L137.9 163.2C127.4 163.2 118.9 171.7 118.9 182.2L118.9 429.3C118.9 439.8 127.4 448.3 137.9 448.3L320.9 448.3C328.4 448.3 334.5 454.4 334.5 461.9C334.5 469.4 328.4 475.5 320.9 475.5L137.9 475.5C112.5 475.5 91.8 454.8 91.8 429.4L91.8 182.2C91.8 156.8 112.5 136.1 137.9 136.1L465.9 136.1C491.3 136.1 512 156.8 512 182.2L512 429.3C512 454.6 491.3 475.3 465.9 475.3Z" />
	<path class="shp1" d="M190.7 412L190.7 412C177.7 412 167 401.3 167 388.3L167 223.1C167 210.1 177.7 199.4 190.7 199.4L190.7 199.4C203.7 199.4 214.4 210.1 214.4 223.1L214.4 388.3C214.3 401.3 203.7 412 190.7 412Z" />
	<path fill-rule="evenodd" class="shp2" d="M190.7 425.5C170.2 425.5 153.5 408.8 153.5 388.3L153.5 223.1C153.5 202.6 170.2 185.9 190.7 185.9C211.2 185.9 227.9 202.6 227.9 223.1L227.9 388.3C227.9 408.8 211.2 425.5 190.7 425.5ZM190.7 213C185.1 213 180.6 217.5 180.6 223.1L180.6 388.3C180.6 393.9 185.1 398.4 190.7 398.4C196.3 398.4 200.8 393.9 200.8 388.3L200.8 223.1C200.8 217.5 196.2 213 190.7 213Z" />
	<path class="shp1" d="M301.9 412L301.9 412C288.9 412 278.2 401.3 278.2 388.3L278.2 223.1C278.2 210.1 288.9 199.4 301.9 199.4L301.9 199.4C314.9 199.4 325.6 210.1 325.6 223.1L325.6 388.3C325.6 401.3 315 412 301.9 412Z" />
	<path fill-rule="evenodd" class="shp2" d="M301.9 425.5C281.4 425.5 264.7 408.8 264.7 388.3L264.7 223.1C264.7 202.6 281.4 185.9 301.9 185.9C322.4 185.9 339.1 202.6 339.1 223.1L339.1 388.3C339.2 408.8 322.5 425.5 301.9 425.5ZM301.9 213C296.3 213 291.8 217.5 291.8 223.1L291.8 388.3C291.8 393.9 296.3 398.4 301.9 398.4C307.5 398.4 312 393.9 312 388.3L312 223.1C312 217.5 307.5 213 301.9 213Z" />
	<path class="shp1" d="M413.2 412L413.2 412C400.2 412 389.5 401.3 389.5 388.3L389.5 223.1C389.5 210.1 400.2 199.4 413.2 199.4L413.2 199.4C426.2 199.4 436.9 210.1 436.9 223.1L436.9 388.3C436.9 401.3 426.2 412 413.2 412Z" />
	<g >
		<path fill-rule="evenodd" class="shp2" d="M413.2 425.5C392.7 425.5 376 408.8 376 388.3L376 223.1C376 202.6 392.7 185.9 413.2 185.9C433.7 185.9 450.4 202.6 450.4 223.1L450.4 388.3C450.4 408.8 433.7 425.5 413.2 425.5ZM413.2 213C407.6 213 403.1 217.5 403.1 223.1L403.1 388.3C403.1 393.9 407.6 398.4 413.2 398.4C418.8 398.4 423.3 393.9 423.3 388.3L423.3 223.1C423.3 217.5 418.8 213 413.2 213Z" />
		<path class="shp0" d="M105.4 230.5L58.3 230.5C50.8 230.5 44.7 224.4 44.7 216.9C44.7 209.4 50.8 203.3 58.3 203.3L105.4 203.3C112.9 203.3 119 209.4 119 216.9C119 224.4 112.9 230.5 105.4 230.5Z" />
		<path class="shp0" d="M105.4 408L58.3 408C50.8 408 44.7 401.9 44.7 394.4C44.7 386.9 50.8 380.8 58.3 380.8L105.4 380.8C112.9 380.8 119 386.9 119 394.4C119 401.9 112.9 408 105.4 408Z" />
		<path class="shp2" d="M47.4 251.5C39.9 251.5 33.8 245.4 33.8 237.9L33.8 92.9C33.8 85.4 39.9 79.3 47.4 79.3C54.9 79.3 61 85.5 61 92.9L61 237.9C61 245.4 54.9 251.5 47.4 251.5Z" />
		<path class="shp0" d="M47.4 475.3C39.9 475.3 33.8 469.2 33.8 461.7L33.8 305.7C33.8 298.2 39.9 292.1 47.4 292.1C54.9 292.1 61 298.2 61 305.7L61 461.7C61 469.2 54.9 475.3 47.4 475.3Z" />
	</g>
	<path class="shp1" d="M13.6 50.3L81.4 50.3L81.4 123.5L13.6 123.5L13.6 50.3Z" />
	<path fill-rule="evenodd" class="shp0" d="M81.3 137L13.6 137C6.1 137 0 130.9 0 123.4L0 50.3C0 42.8 6.1 36.7 13.6 36.7L81.4 36.7C88.9 36.7 95 42.8 95 50.3L95 123.5C94.9 130.9 88.8 137 81.3 137ZM27.1 109.9L67.8 109.9L67.8 63.8L27.1 63.8L27.1 109.9Z" />
</svg>