<svg xmlns="http://www.w3.org/2000/svg" viewBox="0 0 512 512" width="512" height="512">
	<style>
		tspan { white-space:pre }
		.shp0 { fill: #2d527c } 
		.shp1 { fill: #f0bf5f } 
		.shp2 { fill: #cee8fa } 
	</style>
	<g >
		<path class="shp0" d="M298.3 143.4L149 143.4C141 143.4 134.5 136.9 134.5 128.9C134.5 120.9 141 114.4 149 114.4L298.3 114.4C306.3 114.4 312.8 120.9 312.8 128.9C312.8 136.9 306.3 143.4 298.3 143.4Z" />
		<path class="shp0" d="M180.9 383.9L134.8 383.9C60.5 383.9 0 323.4 0 249.1C0 199.9 26.8 154.6 70 130.9C77 127 85.9 129.6 89.8 136.7C93.7 143.7 91.1 152.6 84 156.5C50.1 175.1 29.1 210.6 29.1 249.2C29.1 307.5 76.5 354.9 134.8 354.9L180.9 354.9C188.9 354.9 195.4 361.4 195.4 369.4C195.5 377.3 188.9 383.9 180.9 383.9Z" />
		<path class="shp1" d="M193.3 490.3C127 490.3 73 436.3 73 369.9C73 361.9 79.5 355.4 87.5 355.4C95.5 355.4 102 361.9 102 369.9C102 420.2 142.9 461.2 193.3 461.2C243.7 461.2 284.6 420.3 284.6 369.9C284.6 319.6 243.7 278.6 193.3 278.6C168 278.6 144.5 288.7 127.1 307C121.6 312.8 112.4 313.1 106.5 307.5C100.7 302 100.4 292.8 106 286.9C129 262.7 160 249.4 193.3 249.4C259.7 249.4 313.7 303.4 313.7 369.8C313.7 436.2 259.7 490.3 193.3 490.3Z" />
		<path class="shp1" d="M384.5 355.2L295.7 355.2C287.7 355.2 281.2 348.7 281.2 340.7C281.2 332.7 287.7 326.2 295.7 326.2L384.5 326.2C392.5 326.2 399 332.7 399 340.7C399 348.7 392.5 355.2 384.5 355.2Z" />
		<path class="shp1" d="M479.5 413.7L299.1 413.7C291.1 413.7 284.6 407.2 284.6 399.2C284.6 391.2 291.1 384.7 299.1 384.7L479.5 384.7C481.4 384.7 482.9 383.2 482.9 381.3L482.9 298.7C482.9 295.9 480.6 293.7 477.9 293.7L465.3 293.7C462.5 293.7 460.3 296 460.3 298.7L460.3 337.5C460.3 345.5 453.8 352 445.8 352C437.8 352 431.3 345.5 431.3 337.5L431.3 298.7C431.3 279.9 446.6 264.6 465.4 264.6L478 264.6C496.8 264.6 512.1 279.9 512.1 298.7L512.1 381.3C512 399.1 497.4 413.7 479.5 413.7Z" />
	</g>
	<path class="shp2" d="M193.3 410.7C170.41 410.7 151.9 392.19 151.9 369.3C151.9 346.41 170.41 327.9 193.3 327.9C216.19 327.9 234.7 346.41 234.7 369.3C234.7 392.19 216.19 410.7 193.3 410.7Z" />
	<path fill-rule="evenodd" class="shp1" d="M193.3 425.2C162.5 425.2 137.4 400.1 137.4 369.3C137.4 338.5 162.5 313.4 193.3 313.4C224.1 313.4 249.2 338.5 249.2 369.3C249.2 400.1 224.2 425.2 193.3 425.2ZM193.3 342.5C178.5 342.5 166.5 354.5 166.5 369.3C166.5 384.1 178.5 396.1 193.3 396.1C208.1 396.1 220.1 384.1 220.1 369.3C220.1 354.5 208.1 342.5 193.3 342.5Z" />
	<path class="shp2" d="M216.4 190.6L216.4 67.1C216.4 50.1 230.2 36.3 247.2 36.3L466.6 36.3C483.6 36.3 497.4 50.1 497.4 67.1L497.4 190.6C497.4 207.6 483.6 221.4 466.6 221.4L247.3 221.4C230.2 221.4 216.4 207.6 216.4 190.6Z" />
	<g >
		<path fill-rule="evenodd" class="shp0" d="M466.6 236L247.3 236C222.3 236 201.9 215.6 201.9 190.6L201.9 67.1C201.9 42.1 222.3 21.7 247.3 21.7L466.7 21.7C491.7 21.7 512.1 42.1 512.1 67.1L512.1 190.6C512 215.6 491.6 236 466.6 236ZM231 67.1L231 190.6C231 199.6 238.3 206.9 247.3 206.9L466.7 206.9C475.7 206.9 483 199.6 483 190.6L483 67.1C483 58.1 475.7 50.8 466.7 50.8L247.3 50.8C238.3 50.8 231 58.1 231 67.1Z" />
		<path class="shp0" d="M344.8 137.4L339.9 137.4L339.9 128.5C339.9 123.4 334.8 120.1 326.9 120.1C319 120.1 313.9 123.4 313.9 128.5L313.9 137.4L305 137.4L330.1 87C330.5 86 331 84.8 331 83.6C331 77.3 322.6 73.4 318 73.4C313.2 73.4 309.3 75.8 307.1 80.1L273.1 147C271.9 149.2 271.7 151.1 271.7 152.1C271.7 157.7 275.4 161.5 280.8 161.5L313.9 161.5L313.9 175.7C313.9 181.6 320.6 184.2 326.9 184.2C333.1 184.2 339.9 181.5 339.9 175.7L339.9 161.5L344.8 161.5C349.2 161.5 353.3 155.6 353.3 149.4C353.3 143.6 350.6 137.4 344.8 137.4Z" />
		<path class="shp0" d="M433.6 137.4L428.7 137.4L428.7 128.5C428.7 123.4 423.6 120.1 415.7 120.1C407.8 120.1 402.7 123.4 402.7 128.5L402.7 137.4L393.8 137.4L419 87C419.4 86 419.9 84.8 419.9 83.6C419.9 77.3 411.5 73.4 406.9 73.4C402.1 73.4 398.2 75.8 396 80.1L362 147C360.8 149.2 360.6 151.1 360.6 152.1C360.6 157.7 364.3 161.5 369.7 161.5L402.8 161.5L402.8 175.7C402.8 181.6 409.5 184.2 415.8 184.2C422.1 184.2 428.8 181.5 428.8 175.7L428.8 161.5L433.7 161.5C438.1 161.5 442.2 155.6 442.2 149.4C442.2 143.6 439.5 137.4 433.6 137.4Z" />
	</g>
</svg>