<svg xmlns="http://www.w3.org/2000/svg" viewBox="0 0 512 512" width="512" height="512">
	<style>
		tspan { white-space:pre }
		.shp0 { fill: #f0bf5f } 
		.shp1 { fill: #cee8fa } 
		.shp2 { fill: #2d527c } 
	</style>
	<g >
		<path class="shp0" d="M121.3 467.9L86.8 467.9C79.1 467.9 72.9 461.7 72.9 454C72.9 446.3 79.1 440.1 86.8 440.1L121.3 440.1C129 440.1 135.2 446.3 135.2 454C135.2 461.7 129 467.9 121.3 467.9Z" />
		<path class="shp0" d="M498.1 467.9L461.5 467.9C453.8 467.9 447.6 461.7 447.6 454C447.6 446.3 453.8 440.1 461.5 440.1L498.1 440.1C505.8 440.1 512 446.3 512 454C512 461.7 505.8 467.9 498.1 467.9Z" />
		<path class="shp0" d="M482.8 466.2L461.5 466.2C453.8 466.2 447.6 460 447.6 452.3C447.6 444.6 453.8 438.4 461.5 438.4L468.9 438.4L468.9 432.3C468.9 403.9 456.8 381 433.9 366C417.2 355.1 396 349.3 372.6 349.3L169.9 349.3C151.4 349.3 135.2 362.4 131.4 380.6L119.2 438.4L123.4 438.4C131.1 438.4 137.3 444.6 137.3 452.3C137.3 460 131.1 466.2 123.4 466.2L102.1 466.2C97.9 466.2 93.9 464.3 91.3 461.1C88.7 457.8 87.6 453.6 88.5 449.5L104.2 374.9C110.7 344 138.4 321.5 170 321.5L372.7 321.5C401.5 321.5 428 328.8 449.2 342.7C479.9 362.8 496.8 394.6 496.8 432.3L496.8 452.3C496.7 460 490.5 466.2 482.8 466.2Z" />
		<path class="shp0" d="M325.5 466.2L219.4 466.2C211.7 466.2 205.5 460 205.5 452.3C205.5 444.6 211.7 438.4 219.4 438.4L325.6 438.4C333.3 438.4 339.5 444.6 339.5 452.3C339.5 460 333.2 466.2 325.5 466.2Z" />
	</g>
	<path class="shp1" d="M372.6 335.4C393.6 335.4 413.3 339.7 430 347.9L410.5 263.4C405.1 242.8 386.4 228.4 365.1 228.4L241.2 228.4C222.2 228.4 205.1 239.8 197.9 257.4L168.8 335.4L372.6 335.4L372.6 335.4Z" />
	<g >
		<path fill-rule="evenodd" class="shp0" d="M430 361.8C427.9 361.8 425.8 361.3 423.9 360.4C409.1 353.2 391.3 349.3 372.6 349.3L168.8 349.3C164.2 349.3 160 347.1 157.4 343.3C154.8 339.6 154.2 334.8 155.8 330.5L184.9 252.5C185 252.3 185 252.2 185.1 252C194.5 229.2 216.6 214.4 241.3 214.4L365.2 214.4C392.8 214.4 417 233 424 259.7C424 259.8 424.1 260 424.1 260.1L443.6 344.6C444.8 349.8 442.9 355.3 438.7 358.6C436.2 360.8 433.1 361.8 430 361.8ZM188.9 321.5L372.7 321.5C385.9 321.5 398.7 323.1 410.8 326.2L397.1 266.8C393.2 252.4 380.1 242.4 365.2 242.4L241.2 242.4C227.9 242.4 216 250.3 210.8 262.6L188.9 321.5Z" />
		<path class="shp0" d="M325.5 407.8C317.8 407.8 311.6 401.6 311.6 393.9L311.6 233.7C311.6 226 317.8 219.8 325.5 219.8C333.2 219.8 339.4 226 339.4 233.7L339.4 393.8C339.4 401.6 333.2 407.8 325.5 407.8Z" />
	</g>
	<path fill-rule="evenodd" class="shp2" d="M422.5 503.2C392.1 503.2 367.4 478.5 367.4 448.1C367.4 417.7 392.1 393 422.5 393C452.9 393 477.6 417.7 477.6 448.1C477.6 478.5 452.9 503.2 422.5 503.2ZM422.5 420.8C407.5 420.8 395.2 433 395.2 448.1C395.2 463.2 407.4 475.4 422.5 475.4C437.5 475.4 449.8 463.2 449.8 448.1C449.8 433 437.5 420.8 422.5 420.8Z" />
	<g >
		<path fill-rule="evenodd" class="shp2" d="M161.7 503.2C131.3 503.2 106.6 478.5 106.6 448.1C106.6 417.7 131.3 393 161.7 393C192.1 393 216.8 417.7 216.8 448.1C216.9 478.5 192.1 503.2 161.7 503.2ZM161.7 420.8C146.6 420.8 134.4 433 134.4 448.1C134.4 463.2 146.6 475.4 161.7 475.4C176.8 475.4 189 463.2 189 448.1C189 433 176.8 420.8 161.7 420.8Z" />
		<path fill-rule="evenodd" class="shp2" d="M189.2 199.5L13.9 199.5C6.2 199.5 0 193.3 0 185.6L0 22.7C0 15 6.2 8.8 13.9 8.8L189.2 8.8C196.9 8.8 203.1 15 203.1 22.7L203.1 185.6C203.1 193.3 196.9 199.5 189.2 199.5ZM27.8 171.7L175.3 171.7L175.3 36.6L27.8 36.6L27.8 171.7Z" />
		<path fill-rule="evenodd" class="shp2" d="M135 87.3L135 87.9C135 107.7 123 119 102.1 119L91.8 119L91.8 143.9C91.8 148.7 87 152 80 152C73.1 152 68.2 148.7 68.2 143.9L68.2 64.3C68.2 59.7 72.2 56.3 77.5 56.3L103.4 56.3C123.8 56.3 135 67.3 135 87.3ZM111.3 89.3L111.3 87.9C111.3 80.9 108.3 77.5 102.1 77.5L91.8 77.5L91.8 99.7L102.1 99.7C108.3 99.7 111.3 96.3 111.3 89.3Z" />
		<path class="shp2" d="M101.5 316.5C93.8 316.5 87.6 310.3 87.6 302.6L87.6 187.4C87.6 179.7 93.8 173.5 101.5 173.5C109.2 173.5 115.4 179.7 115.4 187.4L115.4 302.6C115.5 310.3 109.2 316.5 101.5 316.5Z" />
	</g>
</svg>