<svg xmlns="http://www.w3.org/2000/svg" viewBox="0 0 512 512" width="512" height="512">
	<style>
		tspan { white-space:pre }
		.shp0 { fill: #f0bf5f } 
		.shp1 { fill: #cee8fa } 
		.shp2 { fill: #2d527c } 
	</style>
	<g >
		<path class="shp0" d="M432.2 385.7L79.8 385.7C71.7 385.7 65.2 379.2 65.2 371.1L65.2 355.7C65.2 250.5 150.8 164.9 256 164.9C275.9 164.9 295.5 168 314.3 174C322 176.5 326.2 184.7 323.8 192.4C321.3 200.1 313.1 204.3 305.4 201.9C289.5 196.8 272.9 194.2 256 194.2C166.9 194.2 94.4 266.7 94.4 355.8L94.4 356.6L417.6 356.6L417.6 355.8C417.6 312.4 400.6 271.6 369.8 241C364.1 235.3 364 226.1 369.7 220.3C375.4 214.6 384.6 214.5 390.4 220.2C426.8 256.3 446.9 304.4 446.9 355.7L446.9 371.1C446.8 379.2 440.3 385.7 432.2 385.7Z" />
		<path class="shp0" d="M256 190.7C247.9 190.7 241.4 184.2 241.4 176.1L241.4 134.7C241.4 126.6 247.9 120.1 256 120.1C264.1 120.1 270.6 126.6 270.6 134.7L270.6 176.1C270.6 184.2 264.1 190.7 256 190.7Z" />
		<path class="shp0" d="M291.8 145.9L220.2 145.9C212.1 145.9 205.6 139.4 205.6 131.3C205.6 123.2 212.1 116.7 220.2 116.7L291.8 116.7C299.9 116.7 306.4 123.2 306.4 131.3C306.4 139.4 299.9 145.9 291.8 145.9Z" />
	</g>
	<path class="shp1" d="M128 371.1L383.9 371.1L383.9 432.6L128 432.6L128 371.1Z" />
	<path fill-rule="evenodd" class="shp0" d="M384 447.2L128 447.2C119.9 447.2 113.4 440.7 113.4 432.6L113.4 371.1C113.4 363 119.9 356.5 128 356.5L384 356.5C392.1 356.5 398.6 363 398.6 371.1L398.6 432.6C398.6 440.7 392 447.2 384 447.2ZM142.7 418L369.4 418L369.4 385.7L142.7 385.7L142.7 418Z" />
	<path class="shp1" d="M433.9 479.5L78.1 479.5C61.1 479.5 47.3 465.7 47.3 448.7L47.3 448.7C47.3 431.7 61.1 417.9 78.1 417.9L433.9 417.9C450.9 417.9 464.7 431.7 464.7 448.7L464.7 448.7C464.6 465.7 450.9 479.5 433.9 479.5Z" />
	<g >
		<path fill-rule="evenodd" class="shp2" d="M433.9 494.1L78.1 494.1C53.1 494.1 32.7 473.8 32.7 448.7C32.7 423.6 53 403.3 78.1 403.3L433.9 403.3C458.9 403.3 479.3 423.7 479.3 448.7C479.2 473.8 458.9 494.1 433.9 494.1ZM78.1 432.6C69.2 432.6 62 439.8 62 448.7C62 457.6 69.2 464.8 78.1 464.8L433.9 464.8C442.8 464.8 450 457.6 450 448.7C450 439.8 442.8 432.6 433.9 432.6L78.1 432.6Z" />
		<path class="shp2" d="M256 75.5C247.9 75.5 241.4 69 241.4 60.9L241.4 32.5C241.4 24.4 247.9 17.9 256 17.9C264.1 17.9 270.6 24.4 270.6 32.5L270.6 60.9C270.6 69 264.1 75.5 256 75.5Z" />
		<path class="shp2" d="M497.4 273.9L469 273.9C460.9 273.9 454.4 267.4 454.4 259.3C454.4 251.2 460.9 244.7 469 244.7L497.4 244.7C505.5 244.7 512 251.2 512 259.3C512 267.4 505.5 273.9 497.4 273.9Z" />
		<path class="shp2" d="M43 273.9L14.6 273.9C6.5 273.9 0 267.4 0 259.3C0 251.2 6.5 244.7 14.6 244.7L43 244.7C51.1 244.7 57.6 251.2 57.6 259.3C57.6 267.4 51.1 273.9 43 273.9Z" />
		<path class="shp2" d="M396.3 133.6C392.6 133.6 388.8 132.2 386 129.3C380.3 123.6 380.3 114.3 386 108.6L406 88.6C411.7 82.9 421 82.9 426.7 88.6C432.4 94.3 432.4 103.6 426.7 109.3L406.6 129.4C403.8 132.2 400 133.6 396.3 133.6Z" />
		<path class="shp2" d="M115.7 133.6C112 133.6 108.2 132.2 105.4 129.3L85.3 109.2C79.6 103.5 79.6 94.2 85.3 88.5C91 82.8 100.3 82.8 106 88.5L126.1 108.6C131.8 114.3 131.8 123.6 126.1 129.3C123.2 132.2 119.5 133.6 115.7 133.6Z" />
	</g>
</svg>