<svg xmlns="http://www.w3.org/2000/svg" viewBox="0 0 512 512" width="512" height="512">
	<style>
		tspan { white-space:pre }
		.shp0 { fill: #000000 } 
	</style>
	
		<g >
			<path fill-rule="evenodd" class="shp0" d="M508.88 493.79L493.79 508.88C489.63 513.04 482.87 513.04 478.71 508.88L329.98 360.14C295.15 388.35 250.87 405.33 202.67 405.33C90.92 405.33 0 314.42 0 202.67C0 90.92 90.92 0 202.67 0C314.42 0 405.33 90.92 405.33 202.67C405.33 250.87 388.35 295.15 360.14 329.98L508.87 478.71C513.04 482.87 513.04 489.63 508.88 493.79ZM362.67 202.67C362.67 114.44 290.9 42.67 202.67 42.67C114.44 42.67 42.67 114.44 42.67 202.67C42.67 290.9 114.44 362.67 202.67 362.67C290.9 362.67 362.67 290.9 362.67 202.67Z" />
		</g>
	
	
</svg>