<svg xmlns="http://www.w3.org/2000/svg" viewBox="0 0 512 512" width="512" height="450">
	<style>
		tspan { white-space:pre }
		.shp0 { fill: #2d527c }
		.shp1 { fill: #f0bf5f }
		.shp2 { fill: #cee8fa }
	</style>
	<g >
		<path class="shp0" d="M462.4 477.5L49.6 477.5C22.3 477.5 0 455.3 0 427.9L0 84.1C0 56.7 22.3 34.5 49.6 34.5L320.5 34.5C328.3 34.5 334.6 40.8 334.6 48.6C334.6 56.4 328.3 62.7 320.5 62.7L49.6 62.7C37.8 62.7 28.2 72.3 28.2 84.1L28.2 427.9C28.2 439.7 37.8 449.3 49.6 449.3L462.4 449.3C474.2 449.3 483.8 439.7 483.8 427.9L483.8 84.1C483.8 72.3 474.2 62.7 462.4 62.7L401.8 62.7C394 62.7 387.7 56.4 387.7 48.6C387.7 40.8 394 34.5 401.8 34.5L462.4 34.5C489.8 34.5 512 56.8 512 84.1L512 427.9C512 455.3 489.7 477.5 462.4 477.5Z" />
		<path class="shp0" d="M411.7 415.3L138.6 415.3C130.8 415.3 124.5 409 124.5 401.2C124.5 393.4 130.8 387.1 138.6 387.1L411.7 387.1C417.1 387.1 421.5 382.7 421.5 377.3L421.5 134.8C421.5 129.4 417.1 125 411.7 125L138.6 125C130.8 125 124.5 118.7 124.5 110.9C124.5 103.1 130.8 96.8 138.6 96.8L411.7 96.8C432.7 96.8 449.8 113.9 449.8 134.9L449.8 377.3C449.8 398.2 432.7 415.3 411.7 415.3Z" />
		<path class="shp0" d="M76.3 415.3C68.5 415.3 62.2 409 62.2 401.2L62.2 110.8C62.2 103 68.5 96.7 76.3 96.7C84.1 96.7 90.4 103 90.4 110.8L90.4 401.2C90.5 409 84.1 415.3 76.3 415.3Z" />
	</g>
	<path fill-rule="evenodd" class="shp1" d="M326.1 368.5C264.1 368.5 213.6 318 213.6 256C213.6 194 264.1 143.5 326.1 143.5C388.1 143.5 438.6 194 438.6 256C438.6 318 388.1 368.5 326.1 368.5ZM326.1 171.7C279.6 171.7 241.8 209.5 241.8 256C241.8 302.5 279.6 340.3 326.1 340.3C372.6 340.3 410.4 302.5 410.4 256C410.4 209.5 372.6 171.7 326.1 171.7ZM326.1 306.9C298 306.9 275.2 284.1 275.2 256C275.2 227.9 298 205.1 326.1 205.1C354.2 205.1 377 227.9 377 256C377 284.1 354.2 306.9 326.1 306.9ZM326.1 233.3C313.6 233.3 303.4 243.5 303.4 256C303.4 268.5 313.6 278.7 326.1 278.7C338.6 278.7 348.8 268.5 348.8 256C348.8 243.5 338.6 233.3 326.1 233.3Z" />
	<path class="shp2" d="M76.3 308.6L138.5 308.6L138.5 354.3L76.3 354.3L76.3 308.6Z" />
	<path fill-rule="evenodd" class="shp0" d="M138.6 368.4L76.3 368.4C68.5 368.4 62.2 362.1 62.2 354.3L62.2 308.6C62.2 300.8 68.5 294.5 76.3 294.5L138.5 294.5C146.3 294.5 152.6 300.8 152.6 308.6L152.6 354.3C152.7 362.1 146.4 368.4 138.6 368.4ZM90.5 340.2L124.5 340.2L124.5 322.7L90.5 322.7L90.5 340.2Z" />
	<path class="shp2" d="M76.3 157.7L138.5 157.7L138.5 203.4L76.3 203.4L76.3 157.7Z" />
	<g >
		<path fill-rule="evenodd" class="shp0" d="M138.6 217.5L76.3 217.5C68.5 217.5 62.2 211.2 62.2 203.4L62.2 157.7C62.2 149.9 68.5 143.6 76.3 143.6L138.5 143.6C146.3 143.6 152.6 149.9 152.6 157.7L152.6 203.4C152.7 211.2 146.4 217.5 138.6 217.5ZM90.5 189.3L124.5 189.3L124.5 171.8L90.5 171.8L90.5 189.3Z" />
		<path class="shp1" d="M259.7 336.5C256.1 336.5 252.5 335.1 249.7 332.4C244.2 326.9 244.2 317.9 249.7 312.4L290.1 272C295.6 266.5 304.6 266.5 310.1 272C315.6 277.5 315.6 286.5 310.1 292L269.7 332.4C266.9 335.1 263.3 336.5 259.7 336.5Z" />
		<path class="shp1" d="M354.7 241.5C351.1 241.5 347.5 240.1 344.7 237.4C339.2 231.9 339.2 222.9 344.7 217.4L382.5 179.6C388 174.1 397 174.1 402.5 179.6C408 185.1 408 194.1 402.5 199.6L364.7 237.4C362 240.1 358.3 241.5 354.7 241.5Z" />
		<path class="shp1" d="M296.8 240.8C293.2 240.8 289.6 239.4 286.8 236.7L249.7 199.6C244.2 194.1 244.2 185.1 249.7 179.6C255.2 174.1 264.2 174.1 269.7 179.6L306.8 216.7C312.3 222.2 312.3 231.2 306.8 236.7C304.1 239.5 300.4 240.8 296.8 240.8Z" />
		<path class="shp1" d="M392.5 336.5C388.9 336.5 385.3 335.1 382.5 332.4L344.9 294.8C339.4 289.3 339.4 280.3 344.9 274.8C350.4 269.3 359.4 269.3 364.9 274.8L402.5 312.4C408 317.9 408 326.9 402.5 332.4C399.7 335.1 396.1 336.5 392.5 336.5Z" />
	</g>
</svg>
