<svg xmlns="http://www.w3.org/2000/svg"  width="50" height="50"  viewBox="0 0 576 512">
	<style>
		tspan { white-space:pre }
		.shp0 { fill: #e9ce93 } 
		
	</style>
	
	<path class="shp0" d="M 528.1 171.5 L 382 150.2 L 316.7 17.8 c -11.7 -23.6 -45.6 -23.9 -57.4 0 L 194 150.2 L 47.9 171.5 c -26.2 3.8 -36.7 36.1 -17.7 54.6 l 105.7 103 l -25 145.5 c -4.5 26.3 23.2 46 46.4 33.7 L 288 439.6 l 130.7 68.7 c 23.2 12.2 50.9 -7.4 46.4 -33.7 l -25 -145.5 l 105.7 -103 c 19 -18.5 8.5 -50.8 -17.7 -54.6 Z M 388.6 312.3 l 23.7 138.4 L 288 385.4 l -124.3 65.3 l 23.7 -138.4 l -100.6 -98 l 139 -20.2 l 62.2 -126 l 62.2 126 l 139 20.2 l -100.6 98 Z" />
	
</svg>