<svg xmlns="http://www.w3.org/2000/svg" viewBox="0 0 512 512" width="512" height="512">
	<style>
		tspan { white-space:pre }
		.shp0 { fill: #f0bf5f } 
		.shp1 { fill: #cee8fa } 
		.shp2 { fill: #2d527c } 
	</style>
	<g >
		<path class="shp0" d="M262.3 229.2C254.4 229.2 247.9 222.8 247.9 214.8L247.9 51.5C248 25.8 270.2 5 297.6 5C325 5 347.2 25.9 347.2 51.6C347.2 59.5 340.8 66 332.8 66C324.8 66 318.4 59.6 318.4 51.6C318.4 41.8 309 33.8 297.5 33.8C286 33.8 276.6 41.8 276.6 51.6L276.6 214.9C276.7 222.7 270.3 229.2 262.3 229.2Z" />
		<path class="shp0" d="M427.1 270.8C419.2 270.8 412.7 264.4 412.7 256.4L412.7 51.5C412.8 25.8 435 5 462.4 5C489.8 5 512 25.8 512 51.5C512 59.4 505.6 65.9 497.6 65.9C489.7 65.9 483.2 59.5 483.2 51.5C483.2 41.7 473.8 33.7 462.3 33.7C450.8 33.7 441.4 41.7 441.4 51.5L441.4 256.4C441.5 264.3 435.1 270.8 427.1 270.8Z" />
		<path class="shp0" d="M340 125L262.4 125C254.5 125 248 118.6 248 110.6C248 102.6 254.4 96.2 262.4 96.2L340 96.2C347.9 96.2 354.4 102.6 354.4 110.6C354.4 118.6 347.9 125 340 125Z" />
		<path class="shp0" d="M340 229.2L262.4 229.2C254.5 229.2 248 222.8 248 214.8C248 206.8 254.4 200.4 262.4 200.4L340 200.4C347.9 200.4 354.4 206.8 354.4 214.8C354.3 222.7 347.9 229.2 340 229.2Z" />
		<path class="shp0" d="M427.1 177.1L349.5 177.1C341.6 177.1 335.1 170.7 335.1 162.7C335.1 154.7 341.5 148.3 349.5 148.3L427.1 148.3C435 148.3 441.5 154.7 441.5 162.7C441.5 170.7 435.1 177.1 427.1 177.1Z" />
	</g>
	<path class="shp1" d="M471.7 375.1C471.7 392.3 451.2 406.2 425.8 406.2C400.5 406.2 379.9 392.3 379.9 375.1C379.9 392.3 359.4 406.2 334 406.2C308.7 406.2 288.1 392.3 288.1 375.1L288.8 375.1C288.8 392.3 268.3 406.2 242.9 406.2C217.5 406.2 197 392.3 197 375.1C197 392.3 176.5 406.2 151.1 406.2C125.7 406.2 105.2 392.3 105.2 375.1L105.9 375.1C105.9 392.3 85.4 406.2 60 406.2C34.6 406.2 14.1 392.3 14.1 375.1L14.1 287.1C14.1 304.3 34.6 318.2 60 318.2C85.4 318.2 105.9 304.3 105.9 287.1L105.2 287.1C105.2 304.3 125.7 318.2 151.1 318.2C176.5 318.2 197 304.3 197 287.1C197 304.3 217.5 318.2 242.9 318.2C268.3 318.2 288.8 304.3 288.8 287.1L288.1 287.1C288.1 304.3 308.6 318.2 334 318.2C359.4 318.2 379.9 304.3 379.9 287.1C379.9 304.3 400.4 318.2 425.8 318.2C451.2 318.2 471.7 304.3 471.7 287.1L471.7 375.1L471.7 375.1L471.7 375.1Z" />
	<g >
		<path fill-rule="evenodd" class="shp2" d="M425.8 420.6C407.2 420.6 390.9 414.6 379.9 404.9C368.9 414.6 352.6 420.6 334 420.6C315.8 420.6 299.5 414.7 288.5 405.2C277.5 414.7 261.2 420.6 243 420.6C224.4 420.6 208.1 414.6 197.1 404.9C186.1 414.6 169.8 420.6 151.2 420.6C133 420.6 116.7 414.7 105.7 405.2C94.7 414.8 78.4 420.6 60.2 420.6C26.4 420.6 0 400.6 0 375.1L0 287.1C0 279.2 6.4 272.7 14.4 272.7C22.4 272.7 28.8 279.1 28.8 287.1C28.8 294.8 42.6 303.8 60.3 303.8C76.3 303.8 88.6 296.9 91.3 289.9C91.2 289 91.2 288 91.2 287.1C91.2 279.2 97.6 272.7 105.6 272.7L106.3 272.7C114.2 272.7 120.7 279.1 120.7 287.1C120.7 288 120.7 289 120.6 289.9C123.3 296.9 135.6 303.8 151.6 303.8C169.3 303.8 183.1 294.8 183.1 287.1C183.1 279.2 189.5 272.7 197.5 272.7C205.5 272.7 211.9 279.1 211.9 287.1C211.9 294.8 225.7 303.8 243.4 303.8C259.4 303.8 271.7 296.9 274.4 289.9C274.3 289 274.3 288 274.3 287.1C274.3 279.2 280.7 272.7 288.7 272.7L289.4 272.7C297.3 272.7 303.8 279.1 303.8 287.1C303.8 288 303.8 289 303.7 289.9C306.4 296.9 318.7 303.8 334.7 303.8C352.4 303.8 366.2 294.8 366.2 287.1C366.2 279.2 372.6 272.7 380.6 272.7C388.5 272.7 395 279.1 395 287.1C395 294.8 408.8 303.8 426.5 303.8C444.2 303.8 458 294.8 458 287.1C458 279.2 464.4 272.7 472.4 272.7C480.4 272.7 486.8 279.1 486.8 287.1L486.8 375.1C486.1 400.6 459.6 420.6 425.8 420.6ZM394.3 375.1C394.3 382.8 408.1 391.8 425.8 391.8C443.5 391.8 457.3 382.8 457.3 375.1L457.3 326C448.2 330.1 437.4 332.5 425.8 332.5C407.2 332.5 390.9 326.5 379.9 316.8C368.9 326.5 352.6 332.5 334 332.5C315.8 332.5 299.5 326.6 288.5 317.1C277.5 326.7 261.2 332.5 243 332.5C224.4 332.5 208.1 326.5 197.1 316.8C186.1 326.5 169.8 332.5 151.2 332.5C133 332.5 116.7 326.6 105.7 317.1C94.7 326.7 78.4 332.5 60.2 332.5C48.6 332.5 37.8 330.1 28.7 326L28.7 375.1C28.7 382.8 42.5 391.8 60.2 391.8C76.2 391.8 88.5 384.9 91.2 377.9C91.1 377 91.1 376 91.1 375.1C91.1 367.2 97.5 360.7 105.5 360.7L106.2 360.7C114.1 360.7 120.6 367.1 120.6 375.1C120.6 376 120.6 377 120.5 377.9C123.2 384.9 135.5 391.8 151.5 391.8C169.2 391.8 183 382.8 183 375.1C183 367.2 189.4 360.7 197.4 360.7C205.4 360.7 211.8 367.1 211.8 375.1C211.8 382.8 225.6 391.8 243.3 391.8C259.3 391.8 271.6 384.9 274.3 377.9C274.2 377 274.2 376 274.2 375.1C274.2 367.2 280.6 360.7 288.6 360.7L289.3 360.7C297.2 360.7 303.7 367.1 303.7 375.1C303.7 376 303.7 377 303.6 377.9C306.3 384.9 318.6 391.8 334.6 391.8C352.3 391.8 366.1 382.8 366.1 375.1C366.1 367.2 372.5 360.7 380.5 360.7C387.9 360.8 394.3 367.2 394.3 375.1Z" />
		<path class="shp2" d="M334.1 507C315.7 507 299.5 501.1 288.6 491.6C277.6 501.1 261.4 507 243.1 507C224.5 507 208.2 501 197.2 491.3C186.2 501 169.9 507 151.3 507C117.5 507 91.1 487 91.1 461.5C91.1 453.6 97.5 447.1 105.5 447.1L106.2 447.1C114.1 447.1 120.6 453.5 120.6 461.5C120.6 462.3 120.5 463.2 120.4 464C122.9 471.1 135.6 478.3 151.5 478.3C169.2 478.3 183 469.3 183 461.6C183 453.7 189.4 447.2 197.4 447.2C205.4 447.2 211.8 453.6 211.8 461.6C211.8 469.3 225.6 478.3 243.3 478.3C259 478.3 271.5 471.3 274.2 464.3C274.1 463.4 274.1 462.5 274.1 461.5C274.1 453.6 280.5 447.1 288.5 447.1L289.2 447.1C297.1 447.1 303.6 453.5 303.6 461.5C303.6 462.4 303.6 463.3 303.5 464.3C306.2 471.3 318.8 478.3 334.4 478.3C352.1 478.3 365.9 469.3 365.9 461.6C365.9 453.7 372.3 447.2 380.3 447.2C388.2 447.2 394.7 453.6 394.7 461.6C394.3 487.1 367.9 507 334.1 507Z" />
	</g>
</svg>